<mxfile host="app.diagrams.net" modified="2022-08-09T23:34:01.608Z" agent="5.0 (Windows NT 10.0; Win64; x64) AppleWebKit/537.36 (KHTML, like Gecko) Chrome/104.0.0.0 Safari/537.36" etag="2b_X-cwAS-1gZF_KMpzW" version="20.2.3" type="github">
  <diagram name="Page-1" id="2cc2dc42-3aac-f2a9-1cec-7a8b7cbee084">
    <mxGraphModel dx="1329" dy="834" grid="1" gridSize="10" guides="1" tooltips="1" connect="1" arrows="1" fold="1" page="1" pageScale="1" pageWidth="1100" pageHeight="850" background="none" math="0" shadow="0">
      <root>
        <mxCell id="0" />
        <mxCell id="1" parent="0" />
        <mxCell id="7026571954dc6520-1" value="" style="strokeWidth=1;shadow=0;dashed=0;align=center;html=1;shape=mxgraph.mockup.containers.browserWindow;rSize=0;strokeColor=#bbb;mainText=,;recursiveResize=0;rounded=0;labelBackgroundColor=none;fontFamily=Verdana;fontSize=12;container=0;" parent="1" vertex="1">
          <mxGeometry x="31" y="20" width="1057" height="820" as="geometry" />
        </mxCell>
        <mxCell id="82GeBeW-q2Ssai5x9Cbu-1" value="&lt;span style=&quot;color: rgb(32, 33, 36); font-family: menlo, monospace; background-color: rgb(255, 255, 255); font-size: 13px;&quot;&gt;&lt;font style=&quot;font-size: 13px;&quot;&gt;Dashboard&lt;/font&gt;&lt;/span&gt;" style="text;html=1;points=[];align=left;verticalAlign=top;spacingTop=0;fontSize=13;fontFamily=Verdana;spacing=0;" parent="1" vertex="1">
          <mxGeometry x="80" y="219" width="170" height="30" as="geometry" />
        </mxCell>
        <mxCell id="82GeBeW-q2Ssai5x9Cbu-2" value="&lt;font style=&quot;font-size: 13px;&quot;&gt;Wizard&lt;/font&gt;" style="text;html=1;points=[];align=left;verticalAlign=top;spacingTop=0;fontSize=13;fontFamily=Verdana;spacing=0;" parent="1" vertex="1">
          <mxGeometry x="80" y="259" width="170" height="30" as="geometry" />
        </mxCell>
        <mxCell id="82GeBeW-q2Ssai5x9Cbu-3" value="&lt;font face=&quot;menlo, monospace&quot; color=&quot;#202124&quot; style=&quot;font-size: 13px;&quot;&gt;&lt;span style=&quot;font-size: 13px; background-color: rgb(255, 255, 255);&quot;&gt;Requirement&lt;/span&gt;&lt;/font&gt;" style="text;html=1;points=[];align=left;verticalAlign=top;spacingTop=0;fontSize=13;fontFamily=Verdana;spacing=0;" parent="1" vertex="1">
          <mxGeometry x="80" y="394" width="90" height="30" as="geometry" />
        </mxCell>
        <mxCell id="82GeBeW-q2Ssai5x9Cbu-4" value="&lt;font style=&quot;font-size: 13px;&quot;&gt;Analysis&lt;/font&gt;" style="text;html=1;points=[];align=left;verticalAlign=top;spacingTop=0;fontSize=13;fontFamily=Verdana;spacing=0;" parent="1" vertex="1">
          <mxGeometry x="80" y="496" width="100" height="30" as="geometry" />
        </mxCell>
        <mxCell id="82GeBeW-q2Ssai5x9Cbu-9" value="" style="verticalLabelPosition=top;shadow=0;dashed=0;align=center;html=1;verticalAlign=bottom;strokeWidth=1;shape=mxgraph.mockup.misc.pin;fillColor2=#00dd00;fillColor3=#004400;strokeColor=#006600;fontSize=12;fontColor=none;" parent="1" vertex="1">
          <mxGeometry x="60" y="671" width="8" height="12" as="geometry" />
        </mxCell>
        <mxCell id="82GeBeW-q2Ssai5x9Cbu-10" value="" style="verticalLabelPosition=top;shadow=0;dashed=0;align=center;html=1;verticalAlign=bottom;strokeWidth=1;shape=mxgraph.mockup.misc.pin;fillColor2=#dd0000;fillColor3=#440000;strokeColor=#660000;fontSize=12;fontColor=none;" parent="1" vertex="1">
          <mxGeometry x="60" y="716" width="8" height="12" as="geometry" />
        </mxCell>
        <mxCell id="82GeBeW-q2Ssai5x9Cbu-11" value="" style="verticalLabelPosition=top;shadow=0;dashed=0;align=center;html=1;verticalAlign=bottom;strokeWidth=1;shape=mxgraph.mockup.misc.pin;fillColor2=#ccccff;fillColor3=#0000ff;strokeColor=#000066;fontSize=12;fontColor=none;" parent="1" vertex="1">
          <mxGeometry x="60" y="694" width="8" height="12" as="geometry" />
        </mxCell>
        <mxCell id="82GeBeW-q2Ssai5x9Cbu-13" value="" style="shape=cross;whiteSpace=wrap;html=1;fontSize=14;fontColor=none;fillColor=#bbb;strokeColor=#bbb;" parent="1" vertex="1">
          <mxGeometry x="148" y="641" width="13" height="13" as="geometry" />
        </mxCell>
        <mxCell id="82GeBeW-q2Ssai5x9Cbu-112" value="&lt;p style=&quot;margin: 0px; font-variant-numeric: normal; font-variant-east-asian: normal; font-stretch: normal; font-size: 11px; line-height: normal; font-family: &amp;quot;Helvetica Neue&amp;quot;; color: rgb(0, 0, 0);&quot; class=&quot;p1&quot;&gt;-등록관리&lt;/p&gt;&lt;p style=&quot;margin: 0px; font-variant-numeric: normal; font-variant-east-asian: normal; font-stretch: normal; font-size: 11px; line-height: normal; font-family: &amp;quot;Apple SD Gothic Neo&amp;quot;; color: rgb(0, 0, 0);&quot; class=&quot;p2&quot;&gt;-버전관리&lt;/p&gt;&lt;p style=&quot;margin: 0px; font-variant-numeric: normal; font-variant-east-asian: normal; font-stretch: normal; font-size: 11px; line-height: normal; font-family: &amp;quot;Apple SD Gothic Neo&amp;quot;; color: rgb(0, 0, 0);&quot; class=&quot;p2&quot;&gt;-JIRA관리&lt;/p&gt;&lt;p style=&quot;margin: 0px; font-variant-numeric: normal; font-variant-east-asian: normal; font-stretch: normal; font-size: 11px; line-height: normal; font-family: &amp;quot;Apple SD Gothic Neo&amp;quot;; color: rgb(0, 0, 0);&quot; class=&quot;p2&quot;&gt;-제품.버전.지라 연결&lt;/p&gt;" style="strokeWidth=1;shadow=0;dashed=0;align=center;html=1;shape=mxgraph.mockup.text.bulletedList;textColor=#666666;mainText=,,,,;textSize=17;bulletStyle=none;strokeColor=none;fillColor=none;align=left;verticalAlign=top;fontSize=11;fontColor=#666666;spacing=0;" parent="1" vertex="1">
          <mxGeometry x="80" y="321" width="60" height="39" as="geometry" />
        </mxCell>
        <mxCell id="82GeBeW-q2Ssai5x9Cbu-229" value="" style="shape=table;html=1;whiteSpace=wrap;startSize=0;container=1;collapsible=0;childLayout=tableLayout;fontSize=11;fontColor=#bbb;strokeColor=#BBBBBB;strokeWidth=2;fillColor=#fff;" parent="1" vertex="1">
          <mxGeometry x="50" y="400" width="22" height="15" as="geometry" />
        </mxCell>
        <mxCell id="82GeBeW-q2Ssai5x9Cbu-230" value="" style="shape=tableRow;horizontal=0;startSize=0;swimlaneHead=0;swimlaneBody=0;top=0;left=0;bottom=0;right=0;collapsible=0;dropTarget=0;fillColor=none;points=[[0,0.5],[1,0.5]];portConstraint=eastwest;fontSize=11;fontColor=#bbb;strokeColor=#BBBBBB;strokeWidth=2;" parent="82GeBeW-q2Ssai5x9Cbu-229" vertex="1">
          <mxGeometry width="22" height="9" as="geometry" />
        </mxCell>
        <mxCell id="82GeBeW-q2Ssai5x9Cbu-231" value="" style="shape=partialRectangle;html=1;whiteSpace=wrap;connectable=0;fillColor=none;top=0;left=0;bottom=0;right=0;overflow=hidden;fontSize=11;fontColor=#bbb;strokeColor=#BBBBBB;strokeWidth=2;" parent="82GeBeW-q2Ssai5x9Cbu-230" vertex="1">
          <mxGeometry width="11" height="9" as="geometry">
            <mxRectangle width="11" height="9" as="alternateBounds" />
          </mxGeometry>
        </mxCell>
        <mxCell id="82GeBeW-q2Ssai5x9Cbu-232" value="" style="shape=partialRectangle;html=1;whiteSpace=wrap;connectable=0;fillColor=none;top=0;left=0;bottom=0;right=0;overflow=hidden;fontSize=11;fontColor=#bbb;strokeColor=#BBBBBB;strokeWidth=2;" parent="82GeBeW-q2Ssai5x9Cbu-230" vertex="1">
          <mxGeometry x="11" height="9" as="geometry">
            <mxRectangle height="9" as="alternateBounds" />
          </mxGeometry>
        </mxCell>
        <mxCell id="82GeBeW-q2Ssai5x9Cbu-233" value="" style="shape=partialRectangle;html=1;whiteSpace=wrap;connectable=0;fillColor=none;top=0;left=0;bottom=0;right=0;overflow=hidden;fontSize=11;fontColor=#bbb;strokeColor=#BBBBBB;strokeWidth=2;" parent="82GeBeW-q2Ssai5x9Cbu-230" vertex="1">
          <mxGeometry x="11" width="11" height="9" as="geometry">
            <mxRectangle width="11" height="9" as="alternateBounds" />
          </mxGeometry>
        </mxCell>
        <mxCell id="82GeBeW-q2Ssai5x9Cbu-234" value="" style="shape=tableRow;horizontal=0;startSize=0;swimlaneHead=0;swimlaneBody=0;top=0;left=0;bottom=0;right=0;collapsible=0;dropTarget=0;fillColor=none;points=[[0,0.5],[1,0.5]];portConstraint=eastwest;fontSize=11;fontColor=#bbb;strokeColor=#BBBBBB;strokeWidth=2;" parent="82GeBeW-q2Ssai5x9Cbu-229" vertex="1">
          <mxGeometry y="9" width="22" as="geometry" />
        </mxCell>
        <mxCell id="82GeBeW-q2Ssai5x9Cbu-235" value="" style="shape=partialRectangle;html=1;whiteSpace=wrap;connectable=0;fillColor=none;top=0;left=0;bottom=0;right=0;overflow=hidden;fontSize=11;fontColor=#bbb;strokeColor=#BBBBBB;strokeWidth=2;" parent="82GeBeW-q2Ssai5x9Cbu-234" vertex="1">
          <mxGeometry width="11" as="geometry">
            <mxRectangle width="11" as="alternateBounds" />
          </mxGeometry>
        </mxCell>
        <mxCell id="82GeBeW-q2Ssai5x9Cbu-236" value="" style="shape=partialRectangle;html=1;whiteSpace=wrap;connectable=0;fillColor=none;top=0;left=0;bottom=0;right=0;overflow=hidden;fontSize=11;fontColor=#bbb;strokeColor=#BBBBBB;strokeWidth=2;" parent="82GeBeW-q2Ssai5x9Cbu-234" vertex="1">
          <mxGeometry x="11" as="geometry">
            <mxRectangle as="alternateBounds" />
          </mxGeometry>
        </mxCell>
        <mxCell id="82GeBeW-q2Ssai5x9Cbu-237" value="" style="shape=partialRectangle;html=1;whiteSpace=wrap;connectable=0;fillColor=none;top=0;left=0;bottom=0;right=0;overflow=hidden;fontSize=11;fontColor=#bbb;strokeColor=#BBBBBB;strokeWidth=2;" parent="82GeBeW-q2Ssai5x9Cbu-234" vertex="1">
          <mxGeometry x="11" width="11" as="geometry">
            <mxRectangle width="11" as="alternateBounds" />
          </mxGeometry>
        </mxCell>
        <mxCell id="82GeBeW-q2Ssai5x9Cbu-238" value="" style="shape=tableRow;horizontal=0;startSize=0;swimlaneHead=0;swimlaneBody=0;top=0;left=0;bottom=0;right=0;collapsible=0;dropTarget=0;fillColor=none;points=[[0,0.5],[1,0.5]];portConstraint=eastwest;fontSize=11;fontColor=#bbb;strokeColor=#BBBBBB;strokeWidth=2;" parent="82GeBeW-q2Ssai5x9Cbu-229" vertex="1">
          <mxGeometry y="9" width="22" height="6" as="geometry" />
        </mxCell>
        <mxCell id="82GeBeW-q2Ssai5x9Cbu-239" value="" style="shape=partialRectangle;html=1;whiteSpace=wrap;connectable=0;fillColor=none;top=0;left=0;bottom=0;right=0;overflow=hidden;fontSize=11;fontColor=#bbb;strokeColor=#BBBBBB;strokeWidth=2;" parent="82GeBeW-q2Ssai5x9Cbu-238" vertex="1">
          <mxGeometry width="11" height="6" as="geometry">
            <mxRectangle width="11" height="6" as="alternateBounds" />
          </mxGeometry>
        </mxCell>
        <mxCell id="82GeBeW-q2Ssai5x9Cbu-240" value="" style="shape=partialRectangle;html=1;whiteSpace=wrap;connectable=0;fillColor=none;top=0;left=0;bottom=0;right=0;overflow=hidden;fontSize=11;fontColor=#bbb;strokeColor=#BBBBBB;strokeWidth=2;" parent="82GeBeW-q2Ssai5x9Cbu-238" vertex="1">
          <mxGeometry x="11" height="6" as="geometry">
            <mxRectangle height="6" as="alternateBounds" />
          </mxGeometry>
        </mxCell>
        <mxCell id="82GeBeW-q2Ssai5x9Cbu-241" value="" style="shape=partialRectangle;html=1;whiteSpace=wrap;connectable=0;fillColor=none;top=0;left=0;bottom=0;right=0;overflow=hidden;pointerEvents=1;fontSize=11;fontColor=#bbb;strokeColor=#BBBBBB;strokeWidth=2;" parent="82GeBeW-q2Ssai5x9Cbu-238" vertex="1">
          <mxGeometry x="11" width="11" height="6" as="geometry">
            <mxRectangle width="11" height="6" as="alternateBounds" />
          </mxGeometry>
        </mxCell>
        <mxCell id="82GeBeW-q2Ssai5x9Cbu-246" value="" style="html=1;verticalLabelPosition=bottom;labelBackgroundColor=#ffffff;verticalAlign=top;shadow=0;dashed=0;strokeWidth=2;shape=mxgraph.ios7.misc.left;strokeColor=#bbb;fontSize=11;fontColor=#bbb;fillColor=#fff;" parent="1" vertex="1">
          <mxGeometry x="174" y="400" width="6" height="12" as="geometry" />
        </mxCell>
        <mxCell id="82GeBeW-q2Ssai5x9Cbu-247" value="" style="html=1;verticalLabelPosition=bottom;labelBackgroundColor=#ffffff;verticalAlign=top;shadow=0;dashed=0;strokeWidth=2;shape=mxgraph.ios7.misc.left;strokeColor=#bbb;fontSize=11;fontColor=#bbb;fillColor=#fff;" parent="1" vertex="1">
          <mxGeometry x="172" y="504" width="6" height="12" as="geometry" />
        </mxCell>
        <mxCell id="7026571954dc6520-2" value="TEMPLATE" style="strokeWidth=1;shadow=0;dashed=0;align=center;html=1;shape=mxgraph.mockup.containers.anchor;fontSize=17;fontColor=#666666;align=left;" parent="1" vertex="1">
          <mxGeometry x="91" y="32" width="110" height="26" as="geometry" />
        </mxCell>
        <mxCell id="7026571954dc6520-3" value="http://www.a-rms.net/313devgrp/arms/pdServiceVersion.html" style="strokeWidth=1;shadow=0;dashed=0;align=center;html=1;shape=mxgraph.mockup.containers.anchor;rSize=0;fontSize=17;fontColor=#666666;align=left;" parent="1" vertex="1">
          <mxGeometry x="161" y="80" width="250" height="26" as="geometry" />
        </mxCell>
        <mxCell id="7026571954dc6520-4" value="&lt;font style=&quot;font-size: 22px; line-height: 1;&quot;&gt;atlassian &lt;b&gt;RMS&lt;/b&gt;&lt;/font&gt;" style="text;html=1;points=[];align=left;verticalAlign=top;spacingTop=-6;fontSize=30;fontFamily=Verdana;spacing=0;" parent="1" vertex="1">
          <mxGeometry x="49" y="147" width="272" height="40" as="geometry" />
        </mxCell>
        <mxCell id="7026571954dc6520-6" value="&lt;span style=&quot;color: rgb(32, 33, 36); font-family: menlo, monospace; background-color: rgb(255, 255, 255);&quot;&gt;&lt;font style=&quot;font-size: 18px;&quot;&gt;&lt;b&gt;Title&lt;/b&gt;&lt;/font&gt;&lt;font style=&quot;font-size: 14px;&quot;&gt;&amp;nbsp; sub title&lt;/font&gt;&lt;/span&gt;" style="text;html=1;points=[];align=left;verticalAlign=top;spacingTop=-4;fontSize=15;fontFamily=Verdana" parent="1" vertex="1">
          <mxGeometry x="340" y="215" width="170" height="30" as="geometry" />
        </mxCell>
        <mxCell id="82GeBeW-q2Ssai5x9Cbu-5" value="&lt;font face=&quot;menlo, monospace&quot; color=&quot;#202124&quot;&gt;&lt;span style=&quot;font-size: 14px; background-color: rgb(255, 255, 255);&quot;&gt;Labels&lt;/span&gt;&lt;/font&gt;" style="text;html=1;points=[];align=left;verticalAlign=top;spacingTop=-4;fontSize=15;fontFamily=Verdana" parent="1" vertex="1">
          <mxGeometry x="61" y="635" width="170" height="30" as="geometry" />
        </mxCell>
        <mxCell id="82GeBeW-q2Ssai5x9Cbu-12" value="&lt;font face=&quot;menlo, monospace&quot; color=&quot;#202124&quot;&gt;&lt;span style=&quot;font-size: 14px; background-color: rgb(255, 255, 255);&quot;&gt;Projects&lt;/span&gt;&lt;/font&gt;" style="text;html=1;points=[];align=left;verticalAlign=top;spacingTop=-4;fontSize=15;fontFamily=Verdana" parent="1" vertex="1">
          <mxGeometry x="60" y="757" width="170" height="24" as="geometry" />
        </mxCell>
        <mxCell id="82GeBeW-q2Ssai5x9Cbu-14" value="&lt;font style=&quot;font-size: 13px;&quot;&gt;Product&lt;br style=&quot;font-size: 13px;&quot;&gt;&lt;/font&gt;" style="text;html=1;points=[];align=left;verticalAlign=top;spacingTop=0;fontSize=13;fontFamily=Verdana;spacing=0;" parent="1" vertex="1">
          <mxGeometry x="81" y="299" width="170" height="30" as="geometry" />
        </mxCell>
        <mxCell id="82GeBeW-q2Ssai5x9Cbu-18" value="" style="dashed=0;aspect=fixed;verticalLabelPosition=bottom;verticalAlign=top;align=center;shape=mxgraph.gmdl.edit;strokeColor=none;fillColor=#bbb;shadow=0;sketch=0;fontSize=14;fontColor=none;" parent="1" vertex="1">
          <mxGeometry x="51" y="260" width="20" height="20" as="geometry" />
        </mxCell>
        <mxCell id="82GeBeW-q2Ssai5x9Cbu-16" value="" style="sketch=0;pointerEvents=1;shadow=0;dashed=0;html=1;strokeColor=none;labelPosition=center;verticalLabelPosition=bottom;verticalAlign=top;outlineConnect=0;align=center;shape=mxgraph.office.concepts.home;fillColor=#bbb;fontSize=14;fontColor=none;" parent="1" vertex="1">
          <mxGeometry x="51" y="220" width="20.4" height="20" as="geometry" />
        </mxCell>
        <mxCell id="82GeBeW-q2Ssai5x9Cbu-95" value="" style="editableCssRules=.*;shape=image;verticalLabelPosition=bottom;labelBackgroundColor=#ffffff;verticalAlign=top;aspect=fixed;imageAspect=0;image=data:image/svg+xml,PHN2ZyB4bWxucz0iaHR0cDovL3d3dy53My5vcmcvMjAwMC9zdmciIHhtbG5zOnY9Imh0dHBzOi8vdmVjdGEuaW8vbmFubyIgd2lkdGg9IjE0LjAwMDI5OTQ1MzczNTM1MiIgaGVpZ2h0PSIxNS45OTI5MjI3ODI4OTc5NSIgdmlld0JveD0iLTAuMDAwMTQ5NjA4NDAwNTMzOTA3MTIgLTAuMDAwNDYxNzIyMDgzODU1NDIwMzUgMTQuMDAwMjk5NDUzNzM1MzUyIDE1Ljk5MjkyMjc4Mjg5Nzk1Ij4mI3hhOwk8c3R5bGUgdHlwZT0idGV4dC9jc3MiPi5zdDAgeyBmaWxsOiByZ2IoMTg3LCAxODcsIDE4Nyk7IH0gPC9zdHlsZT4mI3hhOwk8cGF0aCBjbGFzcz0ic3QwIiBkPSJNMTMuNjcgMy43MzZMNy4zNi4wOTZhLjcyLjcyIDAgMCAwLS43MiAwTC4zMyAzLjczNmEuNzIuNzIgMCAwIDAtLjMzLjYydjcuMjhhLjcyLjcyIDAgMCAwIC4zNi42Mmw2LjI4IDMuNjRhLjcyLjcyIDAgMCAwIC43MiAwbDYuMzEtMy42NGEuNzIuNzIgMCAwIDAgLjMzLS42MnYtNy4yOGEuNzIuNzIgMCAwIDAtLjMzLS42MnptLS44NyA3LjJsLTIuMi0xLjI3di0zLjM0bC0zLjI1IDEuODd2My44bDIuOS0xLjY3IDIuMiAxLjI3LTUuNDUgMy4xLTUuNDUtMy4xNSAyLjItMS4yNyAyLjkgMS43MnYtMy44TDMuNCA2LjMyNnYzLjM0bC0yLjIgMS4yN3YtNi4yOWw1LjQ1LTMuMTR2Mi40OWwtMi45IDEuNzJMNyA3LjU4NmwzLjI1LTEuODgtMi45LTEuNzF2LTIuNDlsNS40NSAzLjE0eiIvPiYjeGE7PC9zdmc+;fontSize=14;fontColor=#bbb;strokeColor=#BBBBBB;strokeWidth=2;fillColor=#fff;" parent="1" vertex="1">
          <mxGeometry x="50" y="300.71" width="23" height="26.29" as="geometry" />
        </mxCell>
        <mxCell id="82GeBeW-q2Ssai5x9Cbu-244" value="" style="html=1;verticalLabelPosition=bottom;align=center;labelBackgroundColor=#ffffff;verticalAlign=top;strokeWidth=3;strokeColor=#bbb;shadow=0;dashed=0;shape=mxgraph.ios7.icons.looking_glass;fontSize=11;fontColor=#bbb;fillColor=#fff;" parent="1" vertex="1">
          <mxGeometry x="53" y="501" width="20" height="20" as="geometry" />
        </mxCell>
        <mxCell id="82GeBeW-q2Ssai5x9Cbu-248" value="" style="html=1;verticalLabelPosition=bottom;labelBackgroundColor=#ffffff;verticalAlign=top;shadow=0;dashed=0;strokeWidth=2;shape=mxgraph.ios7.misc.down;strokeColor=#bbbbbb;fontSize=11;fontColor=#bbb;fillColor=#fff;" parent="1" vertex="1">
          <mxGeometry x="171" y="308.86" width="12" height="6" as="geometry" />
        </mxCell>
        <mxCell id="82GeBeW-q2Ssai5x9Cbu-249" value="&lt;span style=&quot;color: rgb(32, 33, 36); background-color: rgb(255, 255, 255);&quot;&gt;&lt;font face=&quot;Helvetica&quot; style=&quot;font-size: 11px;&quot;&gt;&lt;span style=&quot;line-height: 1.9;&quot;&gt;My Recent&lt;br&gt;Starred&lt;br&gt;Background&lt;br&gt;&lt;/span&gt;&lt;/font&gt;&lt;/span&gt;" style="text;html=1;points=[];align=left;verticalAlign=top;spacingTop=-4;fontSize=15;fontFamily=Verdana;spacing=0;" parent="1" vertex="1">
          <mxGeometry x="75" y="665" width="100" height="80" as="geometry" />
        </mxCell>
        <mxCell id="82GeBeW-q2Ssai5x9Cbu-304" value="&lt;font style=&quot;font-size: 11px;&quot;&gt;&lt;span style=&quot;box-sizing: border-box; font-weight: 600; font-family: &amp;quot;Nanum Gothic&amp;quot;;&quot; class=&quot;text-white fw-semi-bold&quot;&gt;Personal Responsibility&lt;/span&gt;&lt;span style=&quot;font-family: &amp;quot;Nanum Gothic&amp;quot;;&quot;&gt;&lt;/span&gt;&lt;br style=&quot;box-sizing: border-box; font-family: &amp;quot;Nanum Gothic&amp;quot;;&quot;&gt;&lt;/font&gt;&lt;div style=&quot;box-sizing: border-box; overflow: hidden; height: 5px; margin-bottom: 0px; background: rgba(0, 0, 0, 0.15); border-radius: 3px; box-shadow: rgba(0, 0, 0, 0.1) 0px 1px 2px inset; margin-top: 4.5px; font-family: &amp;quot;Nanum Gothic&amp;quot;; font-size: 11px;&quot; class=&quot;progress progress-xs mt-xs mb-0&quot;&gt;&lt;div style=&quot;box-sizing: border-box; float: left; width: 28.9766px; height: 5px; line-height: 18px; text-align: center; background-color: rgb(219, 42, 52); box-shadow: rgba(0, 0, 0, 0.15) 0px -1px 0px inset; transition: width 0.6s ease 0s;&quot; class=&quot;progress-bar progress-bar-danger&quot;&gt;&lt;/div&gt;&lt;/div&gt;&lt;small style=&quot;box-sizing: border-box; font-family: &amp;quot;Nanum Gothic&amp;quot;; font-size: 11px;&quot;&gt;&lt;font style=&quot;font-size: 11px;&quot;&gt;Provide required notes&lt;/font&gt;&lt;/small&gt;" style="text;whiteSpace=wrap;html=1;fontSize=12;fontFamily=Helvetica;fontColor=#000;spacing=0;verticalAlign=top;" parent="1" vertex="1">
          <mxGeometry x="61" y="840" width="180" height="50" as="geometry" />
        </mxCell>
        <mxCell id="82GeBeW-q2Ssai5x9Cbu-305" value="&lt;span style=&quot;box-sizing: border-box; font-weight: 600; font-family: &amp;quot;Nanum Gothic&amp;quot;; font-size: 13px; font-style: normal; font-variant-ligatures: normal; font-variant-caps: normal; letter-spacing: normal; orphans: 2; text-align: start; text-indent: 0px; text-transform: none; widows: 2; word-spacing: 0px; -webkit-text-stroke-width: 0px; text-decoration-thickness: initial; text-decoration-style: initial; text-decoration-color: initial;&quot; class=&quot;text-white fw-semi-bold&quot;&gt;Sales Report&lt;/span&gt;&lt;span style=&quot;font-family: &amp;quot;Nanum Gothic&amp;quot;; font-size: 13px; font-style: normal; font-variant-ligatures: normal; font-variant-caps: normal; font-weight: 400; letter-spacing: normal; orphans: 2; text-align: start; text-indent: 0px; text-transform: none; widows: 2; word-spacing: 0px; -webkit-text-stroke-width: 0px; text-decoration-thickness: initial; text-decoration-style: initial; text-decoration-color: initial; float: none; display: inline !important;&quot;&gt;&lt;/span&gt;&lt;br style=&quot;box-sizing: border-box; font-family: &amp;quot;Nanum Gothic&amp;quot;; font-size: 13px; font-style: normal; font-variant-ligatures: normal; font-variant-caps: normal; font-weight: 400; letter-spacing: normal; orphans: 2; text-align: start; text-indent: 0px; text-transform: none; widows: 2; word-spacing: 0px; -webkit-text-stroke-width: 0px; text-decoration-thickness: initial; text-decoration-style: initial; text-decoration-color: initial;&quot;&gt;&lt;div style=&quot;box-sizing: border-box; overflow: hidden; height: 5px; margin-bottom: 0px; background: rgba(0, 0, 0, 0.15); border-radius: 3px; box-shadow: rgba(0, 0, 0, 0.1) 0px 1px 2px inset; margin-top: 4.5px; font-family: &amp;quot;Nanum Gothic&amp;quot;; font-size: 13px; font-style: normal; font-variant-ligatures: normal; font-variant-caps: normal; font-weight: 400; letter-spacing: normal; orphans: 2; text-align: start; text-indent: 0px; text-transform: none; widows: 2; word-spacing: 0px; -webkit-text-stroke-width: 0px; text-decoration-thickness: initial; text-decoration-style: initial; text-decoration-color: initial;&quot; class=&quot;progress progress-xs mt-xs mb-0&quot;&gt;&lt;div style=&quot;box-sizing: border-box; float: left; width: 20.1562px; height: 5px; font-size: 12px; line-height: 18px; text-align: center; background-color: rgb(36, 119, 255); box-shadow: rgba(0, 0, 0, 0.15) 0px -1px 0px inset; transition: width 0.6s ease 0s;&quot; class=&quot;progress-bar progress-bar-gray-light&quot;&gt;&lt;/div&gt;&lt;/div&gt;&lt;small style=&quot;box-sizing: border-box; font-size: 11.96px; font-family: &amp;quot;Nanum Gothic&amp;quot;; font-style: normal; font-variant-ligatures: normal; font-variant-caps: normal; font-weight: 400; letter-spacing: normal; orphans: 2; text-align: start; text-indent: 0px; text-transform: none; widows: 2; word-spacing: 0px; -webkit-text-stroke-width: 0px; text-decoration-thickness: initial; text-decoration-style: initial; text-decoration-color: initial;&quot;&gt;Calculating x-axis bias... 65%&lt;/small&gt;" style="text;whiteSpace=wrap;html=1;fontSize=11;fontFamily=Helvetica;fontColor=#000;" parent="1" vertex="1">
          <mxGeometry x="61" y="781" width="180" height="60" as="geometry" />
        </mxCell>
        <mxCell id="82GeBeW-q2Ssai5x9Cbu-309" value="" style="shape=image;html=1;verticalAlign=top;verticalLabelPosition=bottom;labelBackgroundColor=#ffffff;imageAspect=0;aspect=fixed;image=https://cdn0.iconfinder.com/data/icons/evericons-16px/16/x-128.png;fontFamily=Helvetica;fontSize=12;fontColor=#000000;strokeColor=#bbb;strokeWidth=8;fillColor=#bbb;spacing=0;" parent="1" vertex="1">
          <mxGeometry x="191" y="786" width="15" height="15" as="geometry" />
        </mxCell>
        <mxCell id="82GeBeW-q2Ssai5x9Cbu-310" value="" style="shape=image;html=1;verticalAlign=top;verticalLabelPosition=bottom;labelBackgroundColor=#ffffff;imageAspect=0;aspect=fixed;image=https://cdn0.iconfinder.com/data/icons/evericons-16px/16/x-128.png;fontFamily=Helvetica;fontSize=12;fontColor=#000000;strokeColor=#bbb;strokeWidth=8;fillColor=#bbb;spacing=0;" parent="1" vertex="1">
          <mxGeometry x="191" y="845" width="15" height="15" as="geometry" />
        </mxCell>
        <mxCell id="82GeBeW-q2Ssai5x9Cbu-312" value="" style="shape=message;html=1;whiteSpace=wrap;html=1;outlineConnect=0;fontFamily=Helvetica;fontSize=11;fontColor=#000000;strokeColor=#bbb;strokeWidth=2;fillColor=#FFFFFF;" parent="1" vertex="1">
          <mxGeometry x="820" y="155.26" width="26" height="20" as="geometry" />
        </mxCell>
        <mxCell id="82GeBeW-q2Ssai5x9Cbu-313" value="" style="html=1;verticalLabelPosition=bottom;align=center;labelBackgroundColor=#ffffff;verticalAlign=top;strokeWidth=2;strokeColor=#bbb;shadow=0;dashed=0;shape=mxgraph.ios7.icons.bell;fontFamily=Helvetica;fontSize=11;fontColor=#000000;fillColor=#FFFFFF;" parent="1" vertex="1">
          <mxGeometry x="866" y="153.70999999999998" width="24" height="23.099999999999998" as="geometry" />
        </mxCell>
        <mxCell id="82GeBeW-q2Ssai5x9Cbu-349" value="" style="sketch=0;pointerEvents=1;shadow=0;dashed=0;html=1;strokeColor=none;fillColor=#bbb;labelPosition=center;verticalLabelPosition=bottom;verticalAlign=top;outlineConnect=0;align=center;shape=mxgraph.office.concepts.settings;fontFamily=Helvetica;fontSize=11;fontColor=#000000;" parent="1" vertex="1">
          <mxGeometry x="944" y="150.76" width="29" height="29" as="geometry" />
        </mxCell>
        <mxCell id="82GeBeW-q2Ssai5x9Cbu-350" value="" style="sketch=0;pointerEvents=1;shadow=0;dashed=0;html=1;strokeColor=none;fillColor=#bbb;labelPosition=center;verticalLabelPosition=bottom;verticalAlign=top;outlineConnect=0;align=center;shape=mxgraph.office.users.user;fontFamily=Helvetica;fontSize=11;fontColor=#000000;" parent="1" vertex="1">
          <mxGeometry x="989" y="151.13" width="26" height="28.26" as="geometry" />
        </mxCell>
        <mxCell id="82GeBeW-q2Ssai5x9Cbu-356" value="" style="sketch=0;pointerEvents=1;shadow=0;dashed=0;html=1;strokeColor=none;fillColor=#bbb;labelPosition=center;verticalLabelPosition=bottom;verticalAlign=top;align=center;outlineConnect=0;shape=mxgraph.veeam2.turn_on_off;fontFamily=Helvetica;fontSize=11;fontColor=#000000;" parent="1" vertex="1">
          <mxGeometry x="1030" y="150.26" width="30" height="30" as="geometry" />
        </mxCell>
        <mxCell id="82GeBeW-q2Ssai5x9Cbu-357" value="" style="html=1;verticalLabelPosition=bottom;align=center;labelBackgroundColor=#ffffff;verticalAlign=top;strokeWidth=2;strokeColor=#bbb;shadow=0;dashed=0;shape=mxgraph.ios7.icons.looking_glass;fontFamily=Helvetica;fontSize=11;fontColor=#000000;fillColor=#fff;" parent="1" vertex="1">
          <mxGeometry x="776" y="154.26" width="22" height="22" as="geometry" />
        </mxCell>
        <mxCell id="82GeBeW-q2Ssai5x9Cbu-368" value="Search" style="strokeWidth=1;shadow=0;dashed=0;align=center;html=1;shape=mxgraph.mockup.forms.searchBox;strokeColor=#999999;mainText=;strokeColor2=#008cff;fontColor=#666666;fontSize=17;align=left;spacingLeft=3;fontFamily=Helvetica;fillColor=#FFFFFF;" parent="1" vertex="1">
          <mxGeometry x="560" y="150" width="190" height="30" as="geometry" />
        </mxCell>
        <mxCell id="82GeBeW-q2Ssai5x9Cbu-369" value="" style="line;strokeWidth=2;direction=south;html=1;fontFamily=Helvetica;fontSize=7;fontColor=#000000;fillColor=#FFFFFF;" parent="1" vertex="1">
          <mxGeometry x="915" y="151.13" width="10" height="30" as="geometry" />
        </mxCell>
        <mxCell id="82GeBeW-q2Ssai5x9Cbu-370" value="" style="verticalLabelPosition=bottom;shadow=0;dashed=0;align=center;html=1;verticalAlign=top;strokeWidth=1;shape=mxgraph.mockup.graphics.simpleIcon;strokeColor=#999999;fontFamily=Helvetica;fontSize=18;fontColor=#000000;fillColor=#FFFFFF;" parent="1" vertex="1">
          <mxGeometry x="342" y="254.86" width="718" height="525.14" as="geometry" />
        </mxCell>
        <mxCell id="NGS5FakeDsiEOnUGfXq--1" value="&lt;p style=&quot;margin: 0px; font-variant-numeric: normal; font-variant-east-asian: normal; font-stretch: normal; font-size: 11px; line-height: normal; font-family: &amp;quot;Helvetica Neue&amp;quot;; color: rgb(0, 0, 0);&quot; class=&quot;p1&quot;&gt;-등록관리&lt;/p&gt;&lt;p style=&quot;margin: 0px; font-variant-numeric: normal; font-variant-east-asian: normal; font-stretch: normal; font-size: 11px; line-height: normal; font-family: &amp;quot;Apple SD Gothic Neo&amp;quot;; color: rgb(0, 0, 0);&quot; class=&quot;p2&quot;&gt;-변경관리&lt;/p&gt;&lt;p style=&quot;margin: 0px; font-variant-numeric: normal; font-variant-east-asian: normal; font-stretch: normal; font-size: 11px; line-height: normal; font-family: &amp;quot;Apple SD Gothic Neo&amp;quot;; color: rgb(0, 0, 0);&quot; class=&quot;p2&quot;&gt;-리뷰관리&lt;/p&gt;&lt;p style=&quot;margin: 0px; font-variant-numeric: normal; font-variant-east-asian: normal; font-stretch: normal; font-size: 11px; line-height: normal; font-family: &amp;quot;Apple SD Gothic Neo&amp;quot;; color: rgb(0, 0, 0);&quot; class=&quot;p2&quot;&gt;-현황관리&lt;/p&gt;" style="strokeWidth=1;shadow=0;dashed=0;align=center;html=1;shape=mxgraph.mockup.text.bulletedList;textColor=#666666;mainText=,,,,;textSize=17;bulletStyle=none;strokeColor=none;fillColor=none;align=left;verticalAlign=top;fontSize=11;fontColor=#666666;spacing=0;" vertex="1" parent="1">
          <mxGeometry x="81" y="415" width="60" height="39" as="geometry" />
        </mxCell>
        <mxCell id="NGS5FakeDsiEOnUGfXq--2" value="&lt;p style=&quot;margin: 0px; font-variant-numeric: normal; font-variant-east-asian: normal; font-stretch: normal; font-size: 11px; line-height: normal; font-family: &amp;quot;Helvetica Neue&amp;quot;; color: rgb(0, 0, 0);&quot; class=&quot;p1&quot;&gt;- Time 분석&lt;/p&gt;&lt;p style=&quot;margin: 0px; font-variant-numeric: normal; font-variant-east-asian: normal; font-stretch: normal; font-size: 11px; line-height: normal; font-family: &amp;quot;Helvetica Neue&amp;quot;; color: rgb(0, 0, 0);&quot; class=&quot;p1&quot;&gt;- Scope 분석&lt;/p&gt;&lt;p style=&quot;margin: 0px; font-variant-numeric: normal; font-variant-east-asian: normal; font-stretch: normal; font-size: 11px; line-height: normal; font-family: &amp;quot;Helvetica Neue&amp;quot;; color: rgb(0, 0, 0);&quot; class=&quot;p1&quot;&gt;- 투입 인력 분석&lt;/p&gt;&lt;p style=&quot;margin: 0px; font-variant-numeric: normal; font-variant-east-asian: normal; font-stretch: normal; font-size: 11px; line-height: normal; font-family: &amp;quot;Helvetica Neue&amp;quot;; color: rgb(0, 0, 0);&quot; class=&quot;p1&quot;&gt;- 진척 상황 분석&lt;/p&gt;&lt;p style=&quot;margin: 0px; font-variant-numeric: normal; font-variant-east-asian: normal; font-stretch: normal; font-size: 11px; line-height: normal; font-family: &amp;quot;Helvetica Neue&amp;quot;; color: rgb(0, 0, 0);&quot; class=&quot;p1&quot;&gt;- 제품(서비스) 출시&lt;/p&gt;" style="strokeWidth=1;shadow=0;dashed=0;align=center;html=1;shape=mxgraph.mockup.text.bulletedList;textColor=#666666;mainText=,,,,;textSize=17;bulletStyle=none;strokeColor=none;fillColor=none;align=left;verticalAlign=top;fontSize=11;fontColor=#666666;spacing=0;" vertex="1" parent="1">
          <mxGeometry x="80" y="521" width="60" height="39" as="geometry" />
        </mxCell>
      </root>
    </mxGraphModel>
  </diagram>
</mxfile>
